<svg xmlns="http://www.w3.org/2000/svg" viewBox="0 0 24 24" width="24" height="24"><path fill="#24292F" d="M12 1.27a11 11 0 00-3.48 21.46c.55.09.73-.24.73-.53v-1.85c-3.03.66-3.67-1.45-3.67-1.45-.5-1.26-1.21-1.6-1.21-1.6-.98-.67.08-.66.08-.66 1.09.08 1.67 1.12 1.67 1.12.96 1.65 2.53 1.17 3.15.9.1-.7.38-1.17.69-1.44-2.42-.28-4.96-1.21-4.96-5.4 0-1.19.42-2.17 1.12-2.93-.11-.28-.49-1.38.11-2.87 0 0 .92-.3 3 1.12a10.5 10.5 0 015.52 0c2.08-1.42 3-.12 3-.12.6 1.49.22 2.59.11 2.87.7.76 1.12 1.74 1.12 2.93 0 4.2-2.55 5.12-4.98 5.39.39.34.73 1 .73 2.02v3c0 .29.19.62.74.52A11 11 0 0012 1.27"/></svg>